<!--?xml version="1.0" encoding="utf-8"?-->
<!-- Generator: Adobe Illustrator 18.0.0, SVG Export Plug-In . SVG Version: 6.00 Build 0)  -->

<svg version="1.1" id="_x31_0" xmlns="http://www.w3.org/2000/svg" xmlns:xlink="http://www.w3.org/1999/xlink" x="0px" y="0px" viewBox="0 0 512 512" style="width: 128px; height: 128px; opacity: 1;" xml:space="preserve">
<style type="text/css">
	.st0{fill:#374149;}
</style>
<g>
	<path class="st0" d="M453.394,226.605v-0.226l-61.477,61.477v160.535c0,0.766-0.847,1.614-1.613,1.614H222.746L62.75,449.852
		l-0.352-0.156c-0.305-0.078-0.614-0.387-0.922-1.305V121.176c0-0.847,0.77-1.613,1.613-1.613h162.684l35.969-35.969l25.508-25.348
		h-0.161l0.161-0.16H63.09C28.282,58.086,0,86.364,0,121.176v327.215c0,15.211,5.535,29.969,15.371,41.11
		c0.77,0.926,1.703,1.691,2.527,2.562c0.461,0.484,0.93,0.957,1.394,1.41c0.809,0.786,1.508,1.68,2.375,2.406
		c11.453,10.066,26.133,15.602,41.422,15.602h327.215c34.809,0,63.09-28.281,63.09-63.09V318.422l0.114-91.93L453.394,226.605z" style="fill: rgb(63, 90, 242);"></path>
	<path class="st0" d="M505.711,84.672L427.855,6.812c-4.062-4.058-9.402-6.297-15.027-6.293c-5.332-0.004-10.309,2.039-14.011,5.742
		L153.25,251.828l-41.231,132.054c-1.453,4.645-0.152,9.715,3.375,13.246c2.523,2.527,5.942,3.973,9.39,3.973
		c1.305,0,2.602-0.199,3.864-0.59l132.054-41.234L506.27,113.715C514.125,105.86,513.871,92.832,505.711,84.672z M269.23,310.567
		c-1.469-4.18-3.73-8.055-6.66-11.348l168.629-168.625l9.051,9.05L320.871,259.024L269.23,310.567z M246.539,333.356l-0.946,0.946
		l-79.058,24.683l-12.988-12.992l24.683-79.058l0.946-0.942l10.878-0.57c2.883-0.152,5.602,0.886,7.645,2.93
		c2.039,2.039,3.078,4.754,2.926,7.641c-0.5,9.656,3.126,19.11,9.965,25.942c6.836,6.839,16.294,10.469,25.946,9.969
		c2.882-0.157,5.598,0.894,7.649,2.945c2.034,2.031,3.074,4.742,2.926,7.625L246.539,333.356z M201.938,243.227l170.946-170.95
		l9.054,9.055L213.313,249.953c-2.852-2.527-6.176-4.442-9.703-5.898C203.039,243.793,202.523,243.469,201.938,243.227z
		 M235.278,287.828c-2.887,0.148-5.602-0.891-7.645-2.938c-2.039-2.039-3.078-4.754-2.93-7.641
		c0.207-3.977-0.293-7.953-1.457-11.758l171.43-171.426l23.781,23.785l-171.43,171.426
		C243.23,288.113,239.25,287.613,235.278,287.828z M385.625,59.543l27.438-27.441l67.363,67.367l-27.438,27.437L385.625,59.543z" style="fill: rgb(63, 90, 242);"></path>
</g>
</svg>
